<?xml version="1.0" standalone="no"?>
<!DOCTYPE svg PUBLIC "-//W3C//DTD SVG 20010904//EN"
 "http://www.w3.org/TR/2001/REC-SVG-20010904/DTD/svg10.dtd">
<svg version="1.0" xmlns="http://www.w3.org/2000/svg"
 width="345.000000pt" height="345.000000pt" viewBox="0 0 345.000000 345.000000"
 preserveAspectRatio="xMidYMid meet">

<g transform="translate(0.000000,345.000000) scale(0.100000,-0.100000)"
fill="#000000" stroke="none">
<path d="M1539 3398 c-5 -16 -3 -61 3 -71 4 -7 8 7 8 31 0 23 -2 42 -5 42 -3
0 -5 -1 -6 -2z"/>
<path d="M1580 3370 c0 -5 5 -10 11 -10 5 0 7 5 4 10 -3 6 -8 10 -11 10 -2 0
-4 -4 -4 -10z"/>
<path d="M1580 3330 c0 -5 5 -10 11 -10 5 0 7 5 4 10 -3 6 -8 10 -11 10 -2 0
-4 -4 -4 -10z"/>
<path d="M1340 3256 c0 -9 5 -16 10 -16 6 0 10 4 10 9 0 6 -4 13 -10 16 -5 3
-10 -1 -10 -9z"/>
<path d="M1730 3261 c0 -6 5 -13 10 -16 6 -3 10 1 10 9 0 9 -4 16 -10 16 -5 0
-10 -4 -10 -9z"/>
<path d="M1380 3246 c0 -9 5 -16 10 -16 6 0 10 4 10 9 0 6 -4 13 -10 16 -5 3
-10 -1 -10 -9z"/>
<path d="M1775 3251 c-3 -5 -1 -12 5 -16 5 -3 10 1 10 9 0 18 -6 21 -15 7z"/>
<path d="M1109 3163 c-5 -16 -12 -35 -15 -43 -13 -36 -31 -140 -24 -140 4 0
21 5 39 11 26 9 29 14 20 25 -8 10 -10 39 -5 94 7 83 2 99 -15 53z"/>
<path d="M1964 3165 c7 -26 6 -27 -21 -21 -154 33 -227 40 -334 28 -140 -16
-263 -52 -371 -110 -48 -25 -86 -47 -85 -49 2 -1 25 5 52 13 176 53 529 88
675 65 89 -13 207 -52 327 -107 42 -19 78 -32 81 -30 2 3 -17 14 -43 26 -25
11 -67 37 -93 57 -26 20 -75 49 -109 65 -51 24 -63 34 -63 53 0 13 -5 27 -11
31 -9 5 -10 -1 -5 -21z"/>
<path d="M2000 3156 c0 -8 5 -18 10 -21 6 -3 10 3 10 14 0 12 -4 21 -10 21 -5
0 -10 -6 -10 -14z"/>
<path d="M1235 3151 c-3 -5 -1 -12 5 -16 5 -3 10 1 10 9 0 18 -6 21 -15 7z"/>
<path d="M2070 3120 c0 -5 5 -10 10 -10 6 0 10 5 10 10 0 6 -4 10 -10 10 -5 0
-10 -4 -10 -10z"/>
<path d="M1200 3100 c0 -11 5 -20 10 -20 6 0 10 9 10 20 0 11 -4 20 -10 20 -5
0 -10 -9 -10 -20z"/>
<path d="M1265 3111 c-3 -5 -1 -12 5 -16 5 -3 10 1 10 9 0 18 -6 21 -15 7z"/>
<path d="M1176 3071 c-4 -7 -5 -15 -2 -18 9 -9 19 4 14 18 -4 11 -6 11 -12 0z"/>
<path d="M1435 3060 c-183 -32 -215 -40 -347 -91 -129 -51 -202 -92 -305 -174
-85 -67 -101 -85 -129 -142 -56 -119 -39 -189 75 -304 52 -52 89 -77 176 -120
94 -46 118 -54 167 -54 40 0 63 -5 78 -17 11 -10 25 -18 32 -18 18 0 79 -50
73 -61 -4 -5 1 -9 9 -9 8 0 27 -11 42 -25 14 -13 30 -22 35 -19 5 3 9 0 9 -7
0 -7 3 -9 6 -6 4 4 1 14 -6 22 -12 14 -11 15 13 4 15 -7 27 -19 27 -27 0 -12
3 -12 15 -2 12 10 15 10 15 -1 0 -8 6 -5 15 7 12 16 16 17 24 5 6 -9 27 -15
51 -16 23 0 44 -6 48 -11 10 -15 42 -25 42 -14 0 5 16 7 36 4 21 -2 43 1 51 8
19 15 51 18 86 5 23 -8 31 -6 42 9 9 14 23 18 50 16 20 -2 41 1 48 6 19 15 66
20 71 8 2 -6 5 -4 5 4 1 14 28 35 95 72 17 10 42 30 56 46 14 16 37 37 52 46
26 17 27 16 62 -15 l36 -31 71 17 c96 24 161 80 266 229 41 58 45 147 8 221
-37 77 -115 158 -199 207 -39 23 -84 52 -101 64 -79 58 -287 142 -418 170 -98
20 -344 17 -482 -6z m671 -333 c15 -17 37 -95 40 -144 3 -55 14 -105 27 -121
6 -7 12 -56 13 -108 3 -73 0 -96 -10 -100 -8 -3 -17 -15 -20 -27 -10 -40 -169
-138 -266 -164 -113 -31 -393 -22 -475 16 -11 5 -38 17 -60 27 -22 9 -54 28
-71 41 -17 12 -36 23 -41 23 -6 0 -27 18 -47 40 -30 34 -36 47 -36 88 -1 26
-3 70 -5 97 -2 28 -1 66 3 85 5 19 5 57 1 83 -8 48 4 103 19 93 5 -3 19 13 33
35 22 37 27 40 61 36 39 -5 51 -13 106 -67 43 -42 72 -88 72 -114 0 -10 10
-38 21 -62 20 -39 21 -44 6 -59 -9 -8 -14 -22 -10 -31 3 -8 -3 -24 -13 -35
-11 -12 -18 -23 -17 -25 18 -36 42 -64 75 -88 34 -24 52 -30 112 -33 39 -2 88
-6 109 -9 21 -4 50 -1 68 6 29 13 109 94 109 112 0 6 -9 21 -19 34 -16 21 -18
36 -14 107 3 46 11 89 19 97 7 9 24 41 38 71 13 31 32 59 40 62 9 4 16 12 16
20 0 27 24 39 65 32 22 -3 45 -11 51 -18z m-376 -354 c0 -32 -5 -28 -14 10 -4
19 -3 26 4 22 5 -3 10 -18 10 -32z m-52 -23 c-1 -16 -5 -27 -10 -24 -11 7 -10
54 1 54 5 0 9 -13 9 -30z"/>
<path d="M1995 2480 l-29 -30 26 0 c17 0 28 8 36 25 21 46 8 48 -33 5z"/>
<path d="M1304 2471 c17 -19 64 -36 73 -27 7 7 -58 46 -76 46 -11 0 -10 -4 3
-19z"/>
<path d="M1885 1390 c3 -5 11 -10 16 -10 6 0 7 5 4 10 -3 6 -11 10 -16 10 -6
0 -7 -4 -4 -10z"/>
<path d="M2277 1353 c-8 -7 11 -33 24 -33 5 0 9 9 9 20 0 19 -20 27 -33 13z"/>
<path d="M2340 1353 c0 -5 12 -9 27 -10 19 -1 22 1 12 8 -17 11 -39 12 -39 2z"/>
<path d="M2235 1330 c-3 -5 1 -10 9 -10 9 0 16 5 16 10 0 6 -4 10 -9 10 -6 0
-13 -4 -16 -10z"/>
<path d="M2130 1310 c18 -12 30 -13 30 -2 0 4 -10 9 -22 9 -18 2 -20 0 -8 -7z"/>
<path d="M1656 1293 c6 -4 17 -19 24 -32 10 -19 14 -21 22 -10 8 12 9 11 5 -1
-3 -10 -15 -14 -36 -12 -27 2 -31 -1 -31 -22 0 -13 7 -29 15 -36 19 -16 19
-26 1 -33 -10 -4 -12 0 -8 15 3 14 1 19 -6 14 -6 -3 -13 -2 -17 4 -3 5 -11 10
-18 10 -8 0 -8 -3 1 -12 9 -9 7 -15 -6 -25 -9 -8 -12 -12 -6 -9 12 6 29 -23
19 -32 -3 -3 -5 0 -5 6 0 7 -11 12 -25 12 -14 0 -25 -4 -25 -10 0 -5 -4 -10
-10 -10 -5 0 -10 6 -10 13 0 7 -9 20 -19 29 -16 14 -20 14 -25 2 -3 -8 -11
-14 -17 -14 -9 0 -9 3 0 14 9 11 8 15 -5 20 -21 8 -37 -2 -30 -20 3 -8 2 -14
-3 -14 -5 0 -11 9 -14 20 -4 17 -8 18 -31 7 -27 -13 -37 -31 -11 -21 10 4 13
2 10 -8 -4 -10 -16 -13 -35 -10 -28 4 -43 22 -20 22 15 0 -22 49 -36 50 -13 0
-24 -23 -24 -51 0 -11 -10 -23 -24 -29 -22 -8 -56 -45 -56 -61 0 -3 11 -4 25
-1 34 6 31 -4 -6 -24 -24 -12 -29 -18 -18 -25 10 -6 8 -8 -8 -6 -22 1 -40 41
-34 77 2 13 1 13 -8 0 -9 -13 -12 -12 -25 5 -9 11 -16 30 -16 42 0 19 -25 43
-44 43 -8 0 -3 -44 6 -57 5 -6 5 -14 -2 -18 -5 -3 -10 -3 -10 2 0 4 -5 1 -10
-7 -8 -12 -10 -11 -10 7 0 23 -15 37 -39 38 -17 0 -28 25 -12 25 18 0 12 16
-6 16 -10 1 -26 5 -36 9 -13 5 -16 4 -11 -9 4 -10 1 -16 -8 -16 -24 0 -16 -40
9 -46 13 -4 20 -10 17 -15 -3 -5 -10 -7 -15 -4 -5 4 -9 2 -9 -4 0 -5 7 -11 16
-13 13 -3 13 -6 1 -22 -11 -15 -17 -16 -34 -8 -18 10 -21 8 -20 -13 0 -13 6
-26 13 -29 12 -4 10 -10 -5 -25 -16 -16 -18 -26 -11 -51 5 -18 14 -38 21 -46
8 -10 8 -14 0 -14 -6 0 -11 4 -11 10 0 5 -8 6 -17 3 -12 -5 -15 -2 -10 10 10
27 -1 20 -17 -11 -12 -24 -12 -30 3 -49 14 -16 21 -19 36 -11 13 8 16 7 11 -1
-4 -6 -2 -11 3 -11 6 0 11 -4 11 -10 0 -5 -7 -10 -15 -10 -20 0 -19 -17 1 -28
14 -8 14 -10 0 -21 -18 -15 -56 -6 -56 14 0 7 -8 12 -17 11 -10 0 -17 5 -15
12 1 8 -2 11 -8 7 -6 -4 -9 -13 -6 -21 3 -8 2 -14 -3 -14 -15 0 -8 -30 8 -32
9 -1 25 -2 36 -3 11 -1 25 -3 32 -4 14 -1 11 -27 -7 -44 -10 -10 -11 -9 -5 3
8 13 7 13 -9 1 -12 -11 -14 -16 -5 -22 9 -5 8 -14 -5 -34 -10 -15 -15 -29 -12
-33 3 -3 6 0 6 7 0 7 5 9 11 6 7 -5 3 -12 -9 -21 -11 -7 -22 -25 -24 -39 -5
-25 1 -29 40 -28 17 1 15 -14 -2 -20 -23 -9 -15 -47 9 -47 16 0 17 2 5 10 -12
8 -12 10 3 16 39 15 39 -13 1 -52 -23 -22 -33 -39 -26 -42 9 -3 8 -8 -3 -19
-19 -18 -18 -103 1 -103 7 0 19 -6 27 -14 20 -21 148 -83 247 -121 167 -64
438 -118 485 -97 13 6 26 8 29 4 15 -14 36 -9 36 9 0 10 4 19 10 19 5 0 7 -8
4 -18 -5 -14 -3 -14 10 2 18 22 21 14 6 -15 -13 -23 -8 -23 145 -9 191 18 260
31 417 81 96 30 109 41 78 66 -13 11 -11 12 10 13 14 0 21 4 15 8 -10 7 -35
47 -35 56 0 3 14 3 30 1 17 -2 30 0 30 4 0 24 34 21 79 -7 3 -1 -6 -13 -18
-26 -21 -23 -21 -24 -3 -28 11 -3 33 3 50 14 23 14 29 25 27 44 -3 29 11 20
17 -11 3 -18 5 -18 22 8 13 20 15 31 8 40 -14 17 -3 32 33 45 17 6 24 11 17
11 -7 1 -10 6 -7 11 4 6 11 8 16 5 22 -14 6 3 -22 24 -18 13 -29 19 -25 12 4
-6 1 -11 -8 -11 -8 0 -18 4 -21 10 -3 5 -15 10 -26 10 -10 0 -19 5 -19 11 0 5
-5 7 -10 4 -8 -5 -7 -11 1 -21 6 -8 9 -17 5 -21 -3 -3 -6 -1 -6 6 0 7 -5 9
-10 6 -6 -3 -19 -4 -29 0 -17 5 -18 12 -12 44 1 2 8 -3 17 -10 14 -11 18 -11
29 4 12 16 13 16 19 1 3 -9 13 -14 20 -11 8 3 16 1 18 -5 3 -8 10 -8 23 -1 17
10 17 11 -5 18 -18 6 -20 9 -9 16 11 7 10 9 -3 9 -10 0 -18 -7 -18 -15 0 -8
-4 -15 -10 -15 -5 0 -10 5 -10 10 0 6 -16 20 -35 31 -43 26 -44 36 -2 47 17 5
31 15 29 21 -2 8 5 10 19 6 19 -6 20 -5 9 15 -8 15 -8 20 -1 16 6 -4 11 0 11
9 0 9 5 13 10 10 14 -9 12 4 -2 18 -7 7 -36 11 -65 10 -29 -1 -53 2 -53 6 0
13 61 22 74 12 8 -7 12 -4 12 10 0 11 -5 17 -12 15 -7 -3 -10 3 -7 15 4 14 0
19 -16 19 -12 0 -19 5 -16 10 3 6 15 10 25 10 10 0 22 5 26 12 5 8 2 9 -10 5
-23 -9 -43 3 -25 14 11 8 11 12 -4 23 -16 12 -16 14 -2 20 9 3 13 10 10 16 -4
6 -11 8 -16 5 -21 -13 -7 11 19 32 l27 22 -55 -5 c-51 -5 -54 -4 -36 10 17 14
18 16 3 16 -20 0 -22 11 -4 29 10 11 9 12 -3 6 -13 -8 -13 -7 -1 8 13 17 15
17 35 -2 15 -14 26 -17 36 -11 15 9 11 12 -20 14 -8 1 -14 4 -13 9 1 4 4 21 8
38 6 24 9 28 21 18 10 -8 14 -8 14 0 0 11 -13 15 -37 12 -12 -2 -17 10 -14 36
1 7 -7 9 -19 6 -11 -3 -20 -14 -20 -24 0 -19 -37 -45 -48 -34 -4 4 2 13 12 21
19 14 19 14 -1 14 -12 0 -25 -5 -28 -11 -4 -6 -13 -8 -20 -5 -9 3 -13 -3 -12
-19 1 -13 -2 -24 -7 -24 -9 -1 -12 35 -6 57 2 4 3 22 4 41 0 19 7 36 14 38 6
3 10 -1 9 -9 -2 -7 -2 -10 0 -5 3 4 9 4 15 1 7 -4 7 0 0 13 -8 14 -20 18 -47
18 -27 -1 -35 2 -30 13 3 7 5 16 5 18 0 2 7 4 15 4 8 0 15 -4 15 -9 0 -5 9 -7
20 -4 11 3 26 1 33 -4 27 -21 48 -22 67 -3 17 17 20 17 20 4 0 -9 6 -14 13
-12 21 8 19 36 -4 59 -15 15 -19 24 -10 27 8 3 4 10 -10 23 -22 19 -22 19 -44
-4 -19 -20 -20 -23 -6 -36 14 -11 13 -12 -7 -6 -36 10 -72 13 -72 5 0 -15 14
-19 27 -9 9 8 13 8 13 1 0 -21 -34 -31 -53 -17 -11 8 -14 14 -7 17 13 4 2 38
-12 38 -6 0 -8 -6 -5 -14 4 -11 1 -11 -17 -3 -13 6 -23 18 -22 25 1 8 -5 17
-12 19 -8 3 -12 -1 -10 -12 2 -10 -4 -20 -12 -23 -8 -3 -12 -1 -8 3 4 5 3 14
-4 22 -6 7 -8 16 -4 20 3 4 -8 13 -25 20 -37 15 -52 17 -44 4 3 -5 1 -12 -5
-16 -18 -11 1 -25 26 -19 20 5 23 3 18 -11 -5 -13 -14 -15 -40 -11 -27 6 -34
3 -39 -14 -8 -26 -35 -27 -30 0 2 13 -2 20 -11 20 -8 0 -14 6 -14 13 -1 7 -6
5 -14 -6 -9 -12 -16 -14 -21 -8 -3 6 -1 11 5 11 6 0 9 4 5 9 -3 6 -13 10 -23
10 -9 0 -36 2 -59 4 -33 3 -43 1 -43 -10 0 -9 6 -13 14 -10 15 6 26 -19 19
-40 -7 -20 -26 -15 -21 5 3 10 -4 24 -18 35 -22 16 -23 16 -43 -9 -12 -15 -21
-22 -21 -16 0 6 -6 9 -14 6 -8 -3 -17 -1 -21 5 -3 6 -15 11 -27 11 -17 0 -18
2 -8 15 9 11 15 13 20 5 5 -8 9 -6 14 5 3 9 6 18 6 20 0 1 -17 5 -37 9 -21 3
-49 9 -63 12 -14 3 -20 2 -14 -3z m288 -76 c6 -9 7 -19 3 -23 -9 -9 -37 15
-37 33 0 18 20 12 34 -10z m481 -47 c3 -5 1 -10 -4 -10 -6 0 -11 5 -11 10 0 6
2 10 4 10 3 0 8 -4 11 -10z m-187 -30 c3 -9 -1 -11 -12 -7 -9 4 -16 2 -16 -3
0 -6 4 -10 10 -10 5 0 9 -11 8 -25 -2 -15 -9 -25 -18 -25 -13 0 -13 -2 0 -11
11 -8 3 -9 -32 -5 -27 3 -50 1 -53 -4 -4 -6 -11 -7 -18 -3 -7 4 -4 9 9 13 10
4 19 13 19 21 0 8 13 16 29 19 37 6 44 25 14 35 -22 7 -22 7 7 15 37 9 48 7
53 -10z m-415 -7 c-7 -2 -19 -2 -25 0 -7 3 -2 5 12 5 14 0 19 -2 13 -5z m-499
-11 c6 -10 -30 -31 -59 -34 -11 -2 -21 2 -22 7 -1 6 11 9 27 8 23 -2 28 0 24
12 -7 16 21 22 30 7z m236 -32 c0 -5 -9 -10 -20 -10 -11 0 -20 -5 -20 -12 0
-6 -3 -8 -7 -4 -5 4 1 14 11 22 23 16 36 18 36 4z m-170 -30 c13 -9 13 -12 -3
-24 -12 -9 -14 -16 -8 -21 6 -3 11 -13 11 -21 0 -9 10 -24 23 -34 18 -16 23
-16 27 -4 5 12 12 11 40 -8 18 -13 36 -30 38 -38 4 -12 0 -11 -15 3 -19 17
-21 17 -27 1 -4 -9 1 -28 9 -41 9 -13 13 -28 10 -33 -8 -14 -45 -13 -45 1 0 7
-10 9 -25 5 -14 -4 -25 -2 -25 4 0 9 6 11 49 14 8 1 16 8 19 16 3 8 1 12 -3 8
-9 -9 -35 9 -35 24 0 6 7 4 16 -3 14 -12 16 -11 12 6 -2 13 -10 19 -22 17 -10
-2 -25 6 -33 17 -8 12 -18 19 -23 16 -4 -3 -13 1 -19 9 -9 11 -9 15 1 18 10 4
10 8 -2 22 -12 16 -12 19 4 28 15 8 16 12 5 19 -8 5 -9 9 -4 9 6 0 17 -5 25
-10z m500 6 c0 -3 -4 -8 -10 -11 -5 -3 -10 -1 -10 4 0 6 5 11 10 11 6 0 10 -2
10 -4z m-550 -46 c0 -5 -7 -7 -15 -4 -10 4 -15 0 -15 -10 0 -9 7 -19 15 -22 8
-4 15 -10 15 -15 0 -5 -11 -4 -24 1 -13 4 -27 5 -32 0 -5 -4 -18 -5 -28 -1
-17 7 -14 11 25 38 42 29 59 33 59 13z m308 -10 c-3 -18 0 -31 9 -34 7 -3 13
-11 13 -17 0 -8 -7 -6 -18 4 -24 22 -82 11 -82 -14 0 -6 5 -7 10 -4 6 3 10 1
10 -4 0 -13 -10 -14 -29 -2 -7 5 -10 14 -7 20 4 6 1 11 -6 11 -29 1 28 30 59
30 18 0 32 3 32 8 -3 15 1 32 7 32 4 0 4 -13 2 -30z m547 20 c3 -5 1 -10 -4
-10 -6 0 -11 5 -11 10 0 6 2 10 4 10 3 0 8 -4 11 -10z m-262 -7 c-7 -2 -19 -2
-25 0 -7 3 -2 5 12 5 14 0 19 -2 13 -5z m-834 -64 c-18 -11 -22 -5 -14 22 7
20 8 21 17 4 8 -12 7 -20 -3 -26z m-29 15 c0 -8 -4 -12 -10 -9 -5 3 -10 10
-10 16 0 5 5 9 10 9 6 0 10 -7 10 -16z m815 6 c-3 -5 -11 -10 -16 -10 -6 0 -7
5 -4 10 3 6 11 10 16 10 6 0 7 -4 4 -10z m320 0 c11 -5 16 -9 10 -10 -20 -3
-49 -9 -73 -15 -33 -8 -24 17 9 26 31 9 31 9 54 -1z m-1195 -20 c0 -13 -7 -20
-20 -20 -11 0 -20 -5 -20 -11 0 -5 4 -8 9 -4 5 3 13 0 17 -6 3 -6 1 -15 -7
-19 -8 -6 -21 0 -36 18 -45 52 -45 52 -23 52 11 0 20 -6 20 -14 0 -9 7 -12 20
-9 11 3 20 12 20 19 0 8 5 14 10 14 6 0 10 -9 10 -20z m1454 11 c3 -5 -3 -11
-15 -14 -16 -4 -18 -3 -8 9 13 16 16 17 23 5z m-473 -34 c-10 -9 -11 -8 -5 6
3 10 9 15 12 12 3 -3 0 -11 -7 -18z m-372 -18 c-23 -20 -33 -24 -26 -11 2 4 7
15 10 24 4 11 12 15 22 12 13 -5 12 -9 -6 -25z m233 11 c2 -6 14 -12 27 -15
12 -2 29 -9 37 -16 11 -9 14 -8 14 5 0 10 9 16 25 16 29 0 34 -20 6 -27 -13
-3 -17 -11 -14 -24 6 -23 -10 -25 -31 -4 -8 8 -19 15 -24 15 -15 0 -72 31 -72
39 0 19 26 28 32 11z m255 4 c-3 -3 -12 -4 -19 -1 -8 3 -5 6 6 6 11 1 17 -2
13 -5z m-395 -36 c-7 -7 -12 -8 -12 -2 0 14 12 26 19 19 2 -3 -1 -11 -7 -17z
m443 12 c3 -5 -1 -10 -9 -10 -9 0 -16 5 -16 10 0 6 4 10 9 10 6 0 13 -4 16
-10z m-753 -22 c-7 -7 -12 -8 -12 -2 0 14 12 26 19 19 2 -3 -1 -11 -7 -17z
m266 -62 c1 -40 -1 -46 -8 -28 -11 26 -16 27 -24 6 -3 -8 -2 -12 4 -9 6 3 10
1 10 -5 0 -6 -8 -10 -17 -8 -11 2 -18 12 -17 26 0 12 -3 22 -8 22 -14 0 -9 28
7 34 8 3 15 12 15 21 0 12 4 13 18 4 14 -9 19 -25 20 -63z m78 27 c-11 -11
-17 4 -9 23 7 18 8 18 11 1 2 -10 1 -21 -2 -24z m244 23 c0 -11 -19 -15 -25
-6 -3 5 1 10 9 10 9 0 16 -2 16 -4z m-1013 -27 c2 -16 -1 -19 -9 -11 -6 6 -17
8 -24 5 -8 -3 -14 -2 -14 1 0 4 10 11 23 16 12 5 22 9 22 9 1 1 1 -9 2 -20z
m1172 -18 c-6 -2 -21 6 -33 19 l-21 21 32 -18 c18 -10 28 -20 22 -22z m-1129
19 c0 -5 -7 -10 -16 -10 -8 0 -12 5 -9 10 3 6 10 10 16 10 5 0 9 -4 9 -10z
m791 -13 c-10 -9 -11 -8 -5 6 3 10 9 15 12 12 3 -3 0 -11 -7 -18z m-731 3 c8
-5 11 -12 7 -16 -4 -4 -15 0 -24 9 -18 18 -8 23 17 7z m190 6 c0 -3 -4 -8 -10
-11 -5 -3 -10 -1 -10 4 0 6 5 11 10 11 6 0 10 -2 10 -4z m35 -6 c3 -5 1 -10
-4 -10 -6 0 -11 5 -11 10 0 6 2 10 4 10 3 0 8 -4 11 -10z m75 0 c0 -5 -5 -10
-11 -10 -5 0 -7 5 -4 10 3 6 8 10 11 10 2 0 4 -4 4 -10z m395 -10 c-3 -5 -12
-10 -18 -10 -7 0 -6 4 3 10 19 12 23 12 15 0z m115 -10 c0 -5 -9 -6 -20 -3
-13 3 -20 0 -21 -8 0 -8 -2 -24 -3 -36 -2 -13 1 -23 6 -23 7 0 11 13 10 30 -1
11 69 3 80 -8 9 -9 8 -12 -4 -12 -9 0 -18 -10 -21 -21 -4 -15 -11 -20 -21 -16
-9 4 -17 1 -17 -6 -1 -7 -2 -16 -4 -22 -1 -5 -3 -17 -3 -25 -2 -16 -52 -27
-52 -11 0 5 -9 11 -20 14 -34 9 -24 29 10 22 19 -4 30 -3 30 4 0 6 -5 11 -11
11 -6 0 -8 9 -4 21 5 13 3 19 -3 15 -6 -4 -7 8 0 36 5 24 14 45 20 49 13 8 48
0 48 -11z m-350 0 c0 -5 -5 -10 -11 -10 -5 0 -7 5 -4 10 3 6 8 10 11 10 2 0 4
-4 4 -10z m-270 -10 c12 -8 11 -10 -7 -10 -13 0 -23 5 -23 10 0 13 11 13 30 0z
m197 -9 c9 -15 9 -20 0 -24 -7 -3 -18 6 -24 19 -14 30 6 34 24 5z m545 -50
c-19 -11 -19 -15 -2 -36 8 -11 10 -16 4 -12 -6 3 -21 -5 -32 -18 -26 -30 -42
-32 -35 -5 3 11 12 20 19 20 12 0 19 19 15 43 0 4 4 7 10 7 7 0 9 9 6 22 -6
20 -5 20 11 4 14 -13 14 -18 4 -25z m293 13 c-9 -9 -19 -13 -23 -10 -3 4 0 11
8 16 24 15 33 11 15 -6z m-835 -8 c0 -11 -19 -15 -25 -6 -3 5 1 10 9 10 9 0
16 -2 16 -4z m-206 -17 c-2 -4 8 -6 24 -5 15 0 27 -3 27 -9 0 -5 -3 -9 -7 -7
-5 1 -8 -4 -8 -12 0 -9 -8 -12 -24 -9 -16 3 -23 10 -19 19 3 9 -1 14 -12 14
-9 0 -13 -4 -10 -10 9 -14 -8 -13 -23 2 -19 19 -14 24 22 24 19 0 33 -3 30 -7z
m290 -14 c-4 -10 0 -15 10 -15 9 0 24 -9 33 -20 18 -20 39 -28 28 -10 -3 6 -1
10 5 10 7 0 9 -8 4 -22 -6 -20 -5 -21 10 -9 10 9 16 10 16 2 0 -6 9 -11 21
-11 15 0 19 5 15 15 -3 8 -1 15 3 15 9 0 24 -30 19 -35 -4 -4 -71 -8 -80 -5
-17 5 -29 8 -43 9 -8 0 -15 9 -15 20 0 13 -10 20 -31 25 -25 5 -30 10 -24 23
5 14 3 15 -6 6 -6 -6 -18 -9 -25 -6 -24 9 -4 23 31 23 26 0 33 -3 29 -15z
m-54 -35 c0 -18 -19 -11 -30 11 -11 19 -10 20 9 9 12 -6 21 -15 21 -20z m677
5 c0 -8 -4 -15 -9 -15 -10 0 -11 14 -1 23 9 10 10 9 10 -8z m-861 -20 c-3 -9
0 -15 9 -15 8 0 15 -5 15 -10 0 -7 -6 -7 -20 0 -21 11 -25 22 -13 33 11 12 15
8 9 -8z m104 3 c0 -4 -7 -8 -15 -8 -8 0 -15 4 -15 8 0 5 7 9 15 9 8 0 15 -4
15 -9z m-43 -13 c0 -8 -6 -16 -14 -19 -13 -5 -18 15 -6 27 11 11 20 8 20 -8z
m766 9 c-7 -3 -9 -12 -6 -20 3 -8 1 -14 -5 -14 -5 0 -12 9 -15 20 -4 16 0 20
16 19 12 0 17 -3 10 -5z m-673 -20 c0 -8 -5 -12 -10 -9 -6 4 -8 11 -5 16 9 14
15 11 15 -7z m487 -26 c-3 -8 -6 -5 -6 6 -1 11 2 17 5 13 3 -3 4 -12 1 -19z
m-548 -19 c-8 -5 -16 -3 -21 4 -14 22 -8 28 13 16 17 -9 19 -13 8 -20z m81 21
c0 -6 -8 -13 -17 -17 -10 -3 -25 -12 -35 -20 -11 -10 -18 -11 -23 -4 -3 6 1
11 9 11 9 0 16 3 16 8 0 6 9 12 48 31 1 0 2 -4 2 -9z m40 -10 c0 -5 -2 -10 -4
-10 -3 0 -8 5 -11 10 -3 6 -1 10 4 10 6 0 11 -4 11 -10z m290 -42 c-12 -12
-20 -16 -16 -8 3 8 9 23 12 33 4 12 10 15 17 8 6 -6 2 -17 -13 -33z m-595 22
c10 -16 -43 -32 -66 -20 -21 12 -26 25 -6 17 6 -2 21 -1 32 4 28 11 33 11 40
-1z m363 -2 c-2 -6 -10 -14 -16 -16 -7 -2 -10 2 -6 12 7 18 28 22 22 4z m269
-20 c-21 -14 -28 -9 -15 12 9 13 14 16 20 7 4 -6 2 -15 -5 -19z m306 11 c4
-16 3 -18 -9 -8 -16 13 -19 29 -5 29 5 0 11 -9 14 -21z m-858 -9 c3 -5 1 -10
-4 -10 -6 0 -11 5 -11 10 0 6 2 10 4 10 3 0 8 -4 11 -10z m736 1 c-8 -5 -10
-14 -6 -22 6 -11 5 -11 -5 -2 -14 12 -6 33 13 33 8 0 7 -3 -2 -9z m450 -16 c0
-6 -10 -12 -23 -13 -19 -4 -20 -2 -9 12 15 17 33 18 32 1z m-856 -5 c16 -7 14
-9 -12 -7 -18 1 -33 5 -33 9 0 10 19 9 45 -2z m756 -13 c-10 -9 -11 -8 -5 6 3
10 9 15 12 12 3 -3 0 -11 -7 -18z m-501 -24 c0 -1 -11 2 -25 9 -13 6 -22 15
-19 19 4 7 44 -19 44 -28z m-110 23 c0 -3 -4 -8 -10 -11 -5 -3 -10 -1 -10 4 0
6 5 11 10 11 6 0 10 -2 10 -4z m-135 -15 c-3 -5 2 -17 11 -26 9 -9 14 -19 10
-22 -3 -4 -16 4 -27 16 -18 19 -19 25 -8 32 18 11 22 11 14 0z m615 -22 c20
-17 21 -19 5 -14 -11 4 -29 9 -40 10 -11 2 -21 4 -23 4 -2 1 0 6 3 11 9 15 27
12 55 -11z m178 9 c-4 -19 -41 -36 -50 -24 -5 8 19 25 50 35 1 1 1 -5 0 -11z
m-913 -8 c-3 -5 -12 -10 -18 -10 -7 0 -6 4 3 10 19 12 23 12 15 0z m162 4 c-3
-3 -12 -4 -19 -1 -8 3 -5 6 6 6 11 1 17 -2 13 -5z m-82 -24 c-3 -5 -11 -10
-16 -10 -6 0 -7 5 -4 10 3 6 11 10 16 10 6 0 7 -4 4 -10z m-385 -4 c0 -2 -9
-6 -20 -9 -11 -3 -18 -1 -14 4 5 9 34 13 34 5z m235 -5 c3 -5 0 -13 -6 -17 -8
-4 -9 -3 -5 4 5 8 -2 10 -25 5 -19 -3 -30 -2 -26 3 7 13 55 16 62 5z m100 -1
c3 -6 -1 -7 -9 -4 -18 7 -21 14 -7 14 6 0 13 -4 16 -10z m689 -21 c-29 -11
-34 -10 -28 5 3 8 13 12 27 8 20 -5 20 -6 1 -13z m-619 1 c3 -5 1 -10 -4 -10
-6 0 -11 5 -11 10 0 6 2 10 4 10 3 0 8 -4 11 -10z m794 0 c-6 -5 -18 -6 -26
-3 -19 8 -16 11 13 11 17 0 22 -3 13 -8z m-1292 -26 c-3 -3 -12 -4 -19 -1 -8
3 -5 6 6 6 11 1 17 -2 13 -5z m1118 -4 c5 -8 11 -8 20 0 11 9 12 7 8 -10 -4
-13 0 -26 8 -31 10 -6 11 -9 1 -9 -6 0 -22 11 -34 25 -11 13 -26 22 -31 18 -6
-3 -7 -1 -3 5 9 15 23 15 31 2z m-800 -10 c-3 -5 -12 -10 -18 -10 -7 0 -6 4 3
10 19 12 23 12 15 0z m610 -20 c3 -5 -1 -10 -10 -10 -9 0 -13 5 -10 10 3 6 8
10 10 10 2 0 7 -4 10 -10z m-335 -46 c0 -13 -27 -1 -38 16 -12 20 -12 21 13 4
14 -9 25 -18 25 -20z m-823 20 c-3 -3 -12 -4 -19 -1 -8 3 -5 6 6 6 11 1 17 -2
13 -5z m1160 -30 c-3 -3 -12 -4 -19 -1 -8 3 -5 6 6 6 11 1 17 -2 13 -5z m480
-6 c6 -1 9 -8 5 -16 -3 -10 -1 -13 6 -8 7 4 12 3 12 -3 0 -20 -19 -21 -30 -1
-6 11 -18 20 -26 20 -8 0 -12 -4 -9 -10 9 -14 -7 -12 -28 4 -18 14 -18 14 0
19 10 3 27 3 38 0 11 -2 25 -5 32 -5z m-787 -8 c8 -5 11 -12 8 -16 -4 -3 -14
1 -23 10 -18 17 -9 21 15 6z m-390 -32 c0 -4 -4 -8 -9 -8 -6 0 -12 4 -15 8 -3
5 1 9 9 9 8 0 15 -4 15 -9z m161 -11 c-13 -13 -26 -3 -16 12 3 6 11 8 17 5 6
-4 6 -10 -1 -17z m639 -27 c0 -5 -4 -10 -10 -10 -5 0 -10 5 -10 10 0 6 5 10
10 10 6 0 10 -4 10 -10z m-470 -4 c0 -2 3 -12 7 -21 5 -15 3 -16 -14 -7 -11 6
-23 8 -27 5 -3 -3 -6 -1 -6 6 0 7 -5 9 -10 6 -6 -4 -8 -10 -5 -15 3 -4 -2 -11
-11 -14 -8 -3 -13 -2 -11 2 2 4 7 15 10 25 4 11 17 17 37 17 16 0 30 -2 30 -4z
m423 -23 c-6 -16 -23 -17 -23 -2 0 6 -9 8 -22 4 -16 -4 -19 -4 -9 3 20 14 59
10 54 -5z m-390 -18 c-3 -10 1 -15 12 -15 10 0 15 -5 12 -13 -3 -7 1 -21 9
-32 19 -25 18 -40 -1 -21 -8 8 -15 20 -15 26 0 7 -6 10 -14 7 -9 -4 -15 2 -18
16 -5 30 2 58 12 52 5 -3 7 -12 3 -20z m787 5 c0 -5 -2 -10 -4 -10 -3 0 -8 5
-11 10 -3 6 -1 10 4 10 6 0 11 -4 11 -10z m-416 -9 c3 -5 -3 -11 -13 -14 -14
-3 -18 -1 -14 9 6 16 19 18 27 5z m-404 -17 c0 -8 -4 -12 -10 -9 -5 3 -10 10
-10 16 0 5 5 9 10 9 6 0 10 -7 10 -16z m150 6 c0 -5 -2 -10 -4 -10 -3 0 -8 5
-11 10 -3 6 -1 10 4 10 6 0 11 -4 11 -10z m-197 -37 c-7 -2 -19 -2 -25 0 -7 3
-2 5 12 5 14 0 19 -2 13 -5z m-63 -13 c0 -5 -5 -10 -11 -10 -5 0 -7 5 -4 10 3
6 8 10 11 10 2 0 4 -4 4 -10z m290 0 c0 -5 -6 -10 -14 -10 -8 0 -18 5 -21 10
-3 6 3 10 14 10 12 0 21 -4 21 -10z m-576 -15 c3 -8 1 -15 -4 -15 -6 0 -10 7
-10 15 0 8 2 15 4 15 2 0 6 -7 10 -15z m326 7 c0 -13 -46 -35 -62 -30 -8 3 -2
11 17 21 34 18 45 21 45 9z m40 -8 c0 -2 -7 -4 -15 -4 -8 0 -15 4 -15 10 0 5
7 7 15 4 8 -4 15 -8 15 -10z m170 2 c0 -2 -7 -9 -15 -16 -12 -10 -15 -10 -15
4 0 9 7 16 15 16 8 0 15 -2 15 -4z m-493 -12 c-3 -3 -12 -4 -19 -1 -8 3 -5 6
6 6 11 1 17 -2 13 -5z m830 -10 c-3 -3 -12 -4 -19 -1 -8 3 -5 6 6 6 11 1 17
-2 13 -5z m-872 -24 c3 -5 1 -10 -4 -10 -6 0 -11 5 -11 10 0 6 2 10 4 10 3 0
8 -4 11 -10z m22 -12 c-3 -8 -6 -5 -6 6 -1 11 2 17 5 13 3 -3 4 -12 1 -19z
m46 2 c3 -13 0 -20 -8 -20 -8 0 -13 9 -12 20 1 11 4 20 8 20 4 0 9 -9 12 -20z
m234 6 c1 -1 0 -12 -4 -24 -4 -18 -8 -20 -25 -11 -16 9 -19 8 -12 -3 4 -7 -3
-4 -15 7 -19 17 -21 21 -7 23 9 2 13 8 10 14 -5 7 2 9 22 4 16 -4 30 -9 31
-10z m500 8 c-3 -3 -12 -4 -19 -1 -8 3 -5 6 6 6 11 1 17 -2 13 -5z m40 0 c-3
-3 -12 -4 -19 -1 -8 3 -5 6 6 6 11 1 17 -2 13 -5z m-489 -38 c-7 -8 -17 -12
-22 -9 -4 3 -2 9 5 14 22 13 31 11 17 -5z m228 -16 c0 -12 -4 -16 -9 -11 -5 5
-6 14 -3 20 10 15 12 14 12 -9z"/>
<path d="M1830 1289 c0 -5 5 -7 10 -4 6 3 10 8 10 11 0 2 -4 4 -10 4 -5 0 -10
-5 -10 -11z"/>
<path d="M1921 1291 c-10 -6 -10 -10 -1 -16 13 -8 24 -1 19 14 -3 6 -10 7 -18
2z"/>
<path d="M1967 1289 c7 -7 15 -10 18 -7 3 3 -2 9 -12 12 -14 6 -15 5 -6 -5z"/>
<path d="M2241 1296 c2 -2 15 -9 29 -15 24 -11 24 -11 6 3 -16 13 -49 24 -35
12z"/>
<path d="M2307 1283 c-5 -7 -6 -17 -3 -22 4 -5 -4 -7 -16 -3 -14 3 -19 2 -14
-6 9 -15 53 -16 61 -2 3 6 2 10 -4 10 -5 0 -11 8 -13 18 -3 12 -6 14 -11 5z"/>
<path d="M998 1263 c20 -8 14 -31 -10 -36 l-23 -4 22 -8 c12 -4 24 -13 27 -21
7 -19 31 -18 50 2 21 21 20 33 -2 27 -12 -3 -25 4 -36 21 -9 14 -22 26 -29 25
-9 0 -9 -2 1 -6z"/>
<path d="M1035 1260 c4 -6 11 -8 16 -5 14 9 11 15 -7 15 -8 0 -12 -5 -9 -10z"/>
<path d="M2010 1266 c0 -2 7 -7 16 -10 8 -3 12 -2 9 4 -6 10 -25 14 -25 6z"/>
<path d="M1770 1250 c0 -6 7 -13 15 -17 24 -9 27 1 5 15 -13 8 -20 8 -20 2z"/>
<path d="M1313 1231 c-10 -16 -9 -20 3 -25 18 -7 34 0 34 15 0 6 -4 7 -10 4
-5 -3 -10 -2 -10 4 0 5 6 12 13 14 8 4 7 6 -3 6 -8 1 -21 -8 -27 -18z"/>
<path d="M1433 1243 c-7 -3 -13 -11 -13 -19 0 -18 8 -18 26 0 15 16 7 26 -13
19z"/>
<path d="M2540 1230 c0 -5 -9 -10 -20 -10 -11 0 -20 -5 -20 -11 0 -7 8 -9 23
-4 12 4 29 7 38 8 9 1 15 7 12 14 -6 15 -33 18 -33 3z"/>
<path d="M1390 1221 c0 -6 4 -13 10 -16 6 -3 7 1 4 9 -7 18 -14 21 -14 7z"/>
<path d="M1472 1208 c2 -6 10 -14 16 -16 7 -2 10 2 6 12 -7 18 -28 22 -22 4z"/>
<path d="M1442 1198 c-7 -7 -12 -16 -12 -21 0 -5 7 -1 16 8 9 9 14 18 12 20
-2 3 -10 -1 -16 -7z"/>
<path d="M1520 1180 c0 -5 5 -10 11 -10 5 0 7 5 4 10 -3 6 -8 10 -11 10 -2 0
-4 -4 -4 -10z"/>
<path d="M2571 1175 c2 -11 0 -26 -5 -33 -5 -8 1 -21 17 -36 13 -12 27 -29 30
-37 4 -10 6 -11 6 -1 1 7 5 11 10 8 5 -4 4 7 -2 23 -7 19 -16 27 -28 24 -9 -3
-20 0 -23 6 -4 6 0 11 8 11 21 0 20 24 0 41 -14 11 -16 10 -13 -6z"/>
<path d="M2490 1115 c0 -2 9 -9 20 -15 16 -9 20 -8 20 5 0 8 -9 15 -20 15 -11
0 -20 -2 -20 -5z"/>
<path d="M2419 1085 c-1 -3 -2 -8 -3 -12 -1 -5 -5 -14 -9 -20 -14 -22 10 -14
40 12 l28 24 -27 1 c-16 0 -29 -2 -29 -5z"/>
<path d="M2355 1040 c-3 -5 -1 -10 4 -10 6 0 11 5 11 10 0 6 -2 10 -4 10 -3 0
-8 -4 -11 -10z"/>
<path d="M2580 839 c0 -5 5 -7 10 -4 6 3 10 8 10 11 0 2 -4 4 -10 4 -5 0 -10
-5 -10 -11z"/>
<path d="M2596 763 c-8 -20 -8 -23 3 -23 19 0 64 21 58 27 -14 13 -56 11 -61
-4z"/>
<path d="M2490 766 c0 -2 7 -7 16 -10 8 -3 12 -2 9 4 -6 10 -25 14 -25 6z"/>
<path d="M2540 675 c-11 -13 -10 -14 4 -9 9 3 16 10 16 15 0 13 -6 11 -20 -6z"/>
<path d="M2564 510 c3 -36 13 -49 35 -47 13 1 17 7 12 22 -4 16 -6 17 -9 3 -2
-10 -9 -15 -18 -11 -7 3 -11 9 -8 14 3 5 1 17 -5 26 -8 15 -10 14 -7 -7z"/>
<path d="M2520 501 c0 -6 -11 -11 -24 -11 -32 0 -42 -16 -15 -23 27 -7 72 10
67 25 -6 16 -28 23 -28 9z"/>
<path d="M2515 450 c4 -6 11 -8 16 -5 14 9 11 15 -7 15 -8 0 -12 -5 -9 -10z"/>
<path d="M2630 456 c0 -2 7 -7 16 -10 8 -3 12 -2 9 4 -6 10 -25 14 -25 6z"/>
<path d="M2605 440 c27 -12 43 -12 25 0 -8 5 -22 9 -30 9 -10 0 -8 -3 5 -9z"/>
<path d="M2620 410 c8 -5 22 -9 30 -9 10 0 8 3 -5 9 -27 12 -43 12 -25 0z"/>
<path d="M2625 380 c-3 -5 -1 -10 4 -10 6 0 11 5 11 10 0 6 -2 10 -4 10 -3 0
-8 -4 -11 -10z"/>
<path d="M2650 370 c0 -5 5 -10 11 -10 5 0 7 5 4 10 -3 6 -8 10 -11 10 -2 0
-4 -4 -4 -10z"/>
<path d="M2600 301 c0 -5 7 -11 15 -15 8 -3 15 -1 15 3 0 5 -7 11 -15 15 -8 3
-15 1 -15 -3z"/>
<path d="M2410 246 c0 -2 7 -9 15 -16 13 -11 14 -10 9 4 -5 14 -24 23 -24 12z"/>
</g>
</svg>
